<svg width="25" height="26" viewBox="0 0 25 26" fill="none" xmlns="http://www.w3.org/2000/svg">
<g id="prime:search">
<path id="Vector" d="M11.2188 19.1527C9.66741 19.1527 8.1509 18.6926 6.861 17.8307C5.5711 16.9689 4.56575 15.7438 3.97207 14.3106C3.3784 12.8773 3.22307 11.3002 3.52572 9.77866C3.82837 8.25712 4.57542 6.8595 5.67238 5.76253C6.76935 4.66557 8.16698 3.91852 9.68851 3.61587C11.2101 3.31322 12.7872 3.46855 14.2204 4.06222C15.6537 4.6559 16.8787 5.66125 17.7406 6.95115C18.6025 8.24105 19.0625 9.75756 19.0625 11.3089C19.0625 12.339 18.8596 13.3589 18.4654 14.3106C18.0712 15.2622 17.4935 16.1269 16.7651 16.8553C16.0368 17.5836 15.1721 18.1614 14.2204 18.5556C13.2688 18.9498 12.2488 19.1527 11.2188 19.1527ZM11.2188 5.03807C9.98262 5.03807 8.77425 5.40463 7.74644 6.09138C6.71863 6.77814 5.91755 7.75426 5.44451 8.8963C4.97146 10.0383 4.84769 11.295 5.08885 12.5074C5.33 13.7198 5.92526 14.8334 6.79934 15.7075C7.67341 16.5816 8.78706 17.1768 9.99944 17.418C11.2118 17.6591 12.4685 17.5354 13.6105 17.0623C14.7526 16.5893 15.7287 15.7882 16.4154 14.7604C17.1022 13.7326 17.4688 12.5242 17.4688 11.2881C17.4688 9.63047 16.8103 8.04075 15.6382 6.86865C14.4661 5.69655 12.8764 5.03807 11.2188 5.03807Z" fill="#888888"/>
<path id="Vector_2" d="M20.8334 21.7047C20.7307 21.7052 20.629 21.6852 20.5342 21.6459C20.4394 21.6065 20.3534 21.5486 20.2813 21.4756L15.9792 17.1735C15.8412 17.0254 15.7661 16.8295 15.7697 16.6271C15.7732 16.4247 15.8552 16.2316 15.9984 16.0885C16.1415 15.9453 16.3346 15.8633 16.537 15.8598C16.7394 15.8562 16.9353 15.9313 17.0834 16.0693L21.3855 20.3714C21.5318 20.5179 21.6139 20.7165 21.6139 20.9235C21.6139 21.1305 21.5318 21.3291 21.3855 21.4756C21.3133 21.5486 21.2273 21.6065 21.1325 21.6459C21.0377 21.6852 20.936 21.7052 20.8334 21.7047Z" fill="#888888"/>
</g>
</svg>
