<svg width="20" height="20" viewBox="0 0 20 20" fill="none" xmlns="http://www.w3.org/2000/svg">
<path d="M3.7089 11.5901L9.50274 17.0328C9.64789 17.1691 9.72046 17.2373 9.79938 17.2719C9.92726 17.3279 10.0727 17.3279 10.2006 17.2719C10.2795 17.2373 10.3521 17.1691 10.4973 17.0328L16.2911 11.5901C17.9213 10.0587 18.1192 7.53875 16.7482 5.77164L16.4904 5.43937C14.8502 3.3254 11.558 3.67993 10.4056 6.09463C10.2428 6.43572 9.75724 6.43572 9.59445 6.09463C8.44198 3.67993 5.14977 3.3254 3.50962 5.43937L3.25183 5.77164C1.88079 7.53875 2.07875 10.0587 3.7089 11.5901Z" fill="white" fill-opacity="0.86" stroke="#FF0000"/>
</svg>
