<svg width="28" height="28" viewBox="0 0 28 28" fill="none" xmlns="http://www.w3.org/2000/svg">
<path opacity="0.4" d="M18.8884 2.33333H9.11171C4.86504 2.33333 2.33337 4.86499 2.33337 9.11166V18.8767C2.33337 23.135 4.86504 25.6667 9.11171 25.6667H18.8767C23.1234 25.6667 25.655 23.135 25.655 18.8883V9.11166C25.6667 4.86499 23.135 2.33333 18.8884 2.33333Z" fill="#F26222"/>
<path d="M21 10.7917C20.5217 10.7917 20.125 11.1883 20.125 11.6667V13.125H14.875V7.875H16.3333C16.8117 7.875 17.2083 7.47833 17.2083 7C17.2083 6.52167 16.8117 6.125 16.3333 6.125H11.6667C11.1883 6.125 10.7917 6.52167 10.7917 7C10.7917 7.47833 11.1883 7.875 11.6667 7.875H13.125V13.125H7.875V11.6667C7.875 11.1883 7.47833 10.7917 7 10.7917C6.52167 10.7917 6.125 11.1883 6.125 11.6667V16.3333C6.125 16.8117 6.52167 17.2083 7 17.2083C7.47833 17.2083 7.875 16.8117 7.875 16.3333V14.875H13.125V20.125H11.6667C11.1883 20.125 10.7917 20.5217 10.7917 21C10.7917 21.4783 11.1883 21.875 11.6667 21.875H16.3333C16.8117 21.875 17.2083 21.4783 17.2083 21C17.2083 20.5217 16.8117 20.125 16.3333 20.125H14.875V14.875H20.125V16.3333C20.125 16.8117 20.5217 17.2083 21 17.2083C21.4783 17.2083 21.875 16.8117 21.875 16.3333V11.6667C21.875 11.1883 21.4783 10.7917 21 10.7917Z" fill="#F26222"/>
</svg>
