<svg width="26" height="26" viewBox="0 0 26 26" fill="none" xmlns="http://www.w3.org/2000/svg">
<path d="M11.4187 15.8572C11.5134 15.7878 11.6153 15.729 11.7227 15.6817V14.5687H9.0943L9.00012 20.8828H11.7227V19.6842L11.0763 18.9736C10.8759 18.7547 10.7246 18.4955 10.6324 18.2134C10.5402 17.9313 10.5093 17.6328 10.5417 17.3378C10.5741 17.0428 10.6691 16.7582 10.8204 16.5028C10.9716 16.2475 11.1756 16.0274 11.4187 15.8572V15.8572Z" fill="#F26222"/>
<path d="M12.5839 15.4462L15.2593 14.894L15.3963 14.6543L15.4006 14.5687H12.5839V15.4462Z" fill="#F26222"/>
<path d="M15.3135 9.75361C15.3135 8.91574 14.9807 8.11219 14.3882 7.51973C13.7957 6.92726 12.9922 6.59442 12.1543 6.59442C11.3164 6.59442 10.5129 6.92726 9.92042 7.51973C9.32796 8.11219 8.99512 8.91574 8.99512 9.75361V10.5241H15.3135V9.75361Z" fill="#F26222"/>
<path opacity="0.4" d="M2.55959 20.8819H8.14596L8.2487 14.1312C8.25081 14.0191 8.29685 13.9123 8.37692 13.8339C8.45699 13.7554 8.56467 13.7115 8.67677 13.7117H15.8513C15.8759 13.7103 15.9005 13.7132 15.9241 13.7203L16.7973 12.1835C16.9789 11.8625 17.2424 11.5955 17.5609 11.4098C17.8794 11.224 18.2415 11.1261 18.6102 11.1261C18.979 11.1261 19.3411 11.224 19.6596 11.4098C19.9781 11.5955 20.2416 11.8625 20.4231 12.1835L21.7459 14.5079V10.5782H23.7107C23.7726 10.5783 23.8337 10.565 23.8899 10.5391C23.9461 10.5133 23.996 10.4755 24.0361 10.4284C24.0778 10.3819 24.1083 10.3265 24.1254 10.2664C24.1424 10.2063 24.1456 10.1431 24.1345 10.0816C23.7455 8.32643 22.9245 6.69612 21.7459 5.33856V0.586936C21.7461 0.530667 21.7351 0.474915 21.7137 0.422892C21.6922 0.370869 21.6607 0.323602 21.6209 0.283813C21.5811 0.244024 21.5339 0.2125 21.4818 0.191055C21.4298 0.169611 21.3741 0.158669 21.3178 0.158862H17.3324C17.219 0.159189 17.1103 0.204395 17.0301 0.284604C16.9499 0.364812 16.9047 0.473504 16.9044 0.586936V1.65712C15.4164 0.966153 13.8473 0.465636 12.2341 0.167423C12.1804 0.156718 12.1251 0.156718 12.0714 0.167423C1.53649 2.1965 0.18378 10.0046 0.175218 10.0816C0.16445 10.1428 0.167307 10.2056 0.183586 10.2655C0.199864 10.3254 0.229163 10.3811 0.269395 10.4284C0.309783 10.4751 0.359715 10.5127 0.415832 10.5385C0.471949 10.5644 0.53295 10.5779 0.594731 10.5782H2.55959V20.8819ZM8.1374 9.75201C8.1374 8.68707 8.56044 7.66576 9.31346 6.91274C10.0665 6.15971 11.0878 5.73667 12.1527 5.73667C13.2177 5.73667 14.239 6.15971 14.992 6.91274C15.745 7.66576 16.1681 8.68707 16.1681 9.75201V10.9506C16.1683 11.0069 16.1573 11.0626 16.1359 11.1147C16.1144 11.1667 16.0829 11.214 16.0431 11.2537C16.0033 11.2935 15.9561 11.3251 15.904 11.3465C15.852 11.3679 15.7963 11.3789 15.74 11.3787H8.56547C8.45204 11.3784 8.34335 11.3332 8.26314 11.2529C8.18293 11.1727 8.13773 11.064 8.1374 10.9506V9.75201ZM1.36103 23.7029C1.36135 23.8164 1.40656 23.9251 1.48677 24.0053C1.56698 24.0855 1.67567 24.1307 1.7891 24.131H12.8591L13.1288 21.7381H1.36103V23.7029Z" fill="#F26222"/>
<path d="M25.5093 18.3962C25.656 18.2357 25.7575 18.039 25.8035 17.8264C25.8495 17.6138 25.8383 17.3928 25.771 17.1859C25.7038 16.979 25.5829 16.7937 25.4206 16.6488C25.2584 16.5038 25.0606 16.4045 24.8475 16.361L21.5853 15.6896C21.5468 15.681 21.5086 15.6666 21.5021 15.6653C21.4293 15.6315 21.3685 15.5762 21.3278 15.507L19.6797 12.6053C19.5728 12.4156 19.4174 12.2577 19.2293 12.1478C19.0413 12.0379 18.8275 11.98 18.6097 11.9799C18.3919 11.9799 18.178 12.0378 17.9899 12.1476C17.8019 12.2574 17.6464 12.4152 17.5394 12.6049L15.8908 15.5078C15.8641 15.5531 15.8284 15.5925 15.7857 15.6234C15.7431 15.6542 15.6946 15.6759 15.6431 15.6871V15.6876L15.6306 15.6905L12.3803 16.3593C12.2101 16.3896 12.0492 16.4587 11.91 16.5613C11.7668 16.6612 11.6466 16.7907 11.5574 16.9409C11.4683 17.0912 11.4124 17.2587 11.3933 17.4324C11.3742 17.606 11.3925 17.7817 11.447 17.9477C11.5014 18.1137 11.5907 18.2661 11.7088 18.3948L13.9598 20.8598C13.9956 20.8989 14.0228 20.9451 14.0397 20.9953C14.0566 21.0455 14.0628 21.0987 14.0581 21.1515L13.6808 24.473C13.6558 24.6894 13.6887 24.9087 13.7763 25.1082C13.8639 25.3078 14.003 25.4804 14.1793 25.6085C14.3557 25.7366 14.5629 25.8155 14.7797 25.8371C14.9966 25.8587 15.2153 25.8223 15.4134 25.7315L18.455 24.352C18.5038 24.3293 18.557 24.3176 18.6108 24.3178C18.6647 24.3179 18.7178 24.3299 18.7665 24.3528L21.8027 25.7319C22.0012 25.8217 22.22 25.8573 22.4368 25.8352C22.6535 25.813 22.8606 25.7339 23.0369 25.6058C23.2132 25.4778 23.3524 25.3053 23.4405 25.1061C23.5286 24.9068 23.5624 24.6877 23.5384 24.4711L23.1617 21.154C23.1566 21.1009 23.1627 21.0474 23.1795 20.9968C23.1963 20.9462 23.2235 20.8996 23.2593 20.8601L25.5093 18.3962Z" fill="#F26222"/>
</svg>
