<svg width="28" height="28" viewBox="0 0 28 28" fill="none" xmlns="http://www.w3.org/2000/svg">
<path opacity="0.4" d="M12.6546 25.5899C6.84503 24.9228 2.33337 19.9883 2.33337 14C2.33337 7.55669 7.55672 2.33334 14 2.33334C20.4434 2.33334 25.6667 7.55669 25.6667 14C25.6667 20.016 21.8369 19.5212 18.5658 19.0987C16.6792 18.855 14.9784 18.6353 14.3056 19.7026C13.8454 20.4326 14.3428 21.3428 14.953 21.953C15.7154 22.7153 15.7154 23.9514 14.953 24.7137C14.3428 25.3239 13.5119 25.6884 12.6546 25.5899Z" fill="#F26222"/>
<path d="M12.9325 8.16666C12.9325 9.13316 12.149 9.91666 11.1825 9.91666C10.216 9.91666 9.43254 9.13316 9.43254 8.16666C9.43254 7.20016 10.216 6.41666 11.1825 6.41666C12.149 6.41666 12.9325 7.20016 12.9325 8.16666Z" fill="#F26222"/>
<path d="M7.58337 15.1669C8.54987 15.1669 9.33337 14.3834 9.33337 13.4169C9.33337 12.4504 8.54987 11.6669 7.58337 11.6669C6.61688 11.6669 5.83337 12.4504 5.83337 13.4169C5.83337 14.3834 6.61688 15.1669 7.58337 15.1669Z" fill="#F26222"/>
<path d="M20.4167 15.1669C21.3832 15.1669 22.1667 14.3834 22.1667 13.4169C22.1667 12.4504 21.3832 11.6669 20.4167 11.6669C19.4502 11.6669 18.6667 12.4504 18.6667 13.4169C18.6667 14.3834 19.4502 15.1669 20.4167 15.1669Z" fill="#F26222"/>
<path d="M16.9167 9.91692C17.8832 9.91692 18.6667 9.13342 18.6667 8.16692C18.6667 7.20042 17.8832 6.41692 16.9167 6.41692C15.9502 6.41692 15.1667 7.20042 15.1667 8.16692C15.1667 9.13342 15.9502 9.91692 16.9167 9.91692Z" fill="#F26222"/>
</svg>
