<svg width="18" height="18" viewBox="0 0 18 18" fill="none" xmlns="http://www.w3.org/2000/svg">
<path opacity="0.4" d="M9 16.5C12.5912 16.5 15.5025 13.5887 15.5025 9.9975C15.5025 6.40626 12.5912 3.495 9 3.495C5.40877 3.495 2.4975 6.40626 2.4975 9.9975C2.4975 13.5887 5.40877 16.5 9 16.5Z" fill="#1c2d5b"/>
<path d="M9 10.3125C8.6925 10.3125 8.4375 10.0575 8.4375 9.75V6C8.4375 5.6925 8.6925 5.4375 9 5.4375C9.3075 5.4375 9.5625 5.6925 9.5625 6V9.75C9.5625 10.0575 9.3075 10.3125 9 10.3125Z" fill="#1c2d5b"/>
<path d="M11.1675 2.5875H6.83248C6.53248 2.5875 6.29248 2.3475 6.29248 2.0475C6.29248 1.7475 6.53248 1.5 6.83248 1.5H11.1675C11.4675 1.5 11.7075 1.74 11.7075 2.04C11.7075 2.34 11.4675 2.5875 11.1675 2.5875Z" fill="#1c2d5b"/>
</svg>
