<svg width="20" height="20" viewBox="0 0 20 20" fill="none" xmlns="http://www.w3.org/2000/svg">
<path d="M17.9167 12.9167C18.15 12.9167 18.3334 13.1 18.3334 13.3334V14.1667C18.3334 15.55 17.2167 16.6667 15.8334 16.6667C15.8334 15.2917 14.7084 14.1667 13.3334 14.1667C11.9584 14.1667 10.8334 15.2917 10.8334 16.6667H9.16669C9.16669 15.2917 8.04169 14.1667 6.66669 14.1667C5.29169 14.1667 4.16669 15.2917 4.16669 16.6667C2.78335 16.6667 1.66669 15.55 1.66669 14.1667V12.5C1.66669 12.0417 2.04169 11.6667 2.50002 11.6667H10.4167C11.5667 11.6667 12.5 10.7334 12.5 9.58335V5.00002C12.5 4.54169 12.875 4.16669 13.3334 4.16669H14.0334C14.6334 4.16669 15.1834 4.49169 15.4834 5.00835L16.0167 5.94169C16.0917 6.07502 15.9917 6.25002 15.8334 6.25002C14.6834 6.25002 13.75 7.18335 13.75 8.33335V10.8334C13.75 11.9834 14.6834 12.9167 15.8334 12.9167H17.9167Z" fill="#1c2d5b"/>
<path d="M6.66667 18.3333C7.58714 18.3333 8.33333 17.5871 8.33333 16.6667C8.33333 15.7462 7.58714 15 6.66667 15C5.74619 15 5 15.7462 5 16.6667C5 17.5871 5.74619 18.3333 6.66667 18.3333Z" fill="#1c2d5b"/>
<path d="M13.3334 18.3333C14.2538 18.3333 15 17.5871 15 16.6667C15 15.7462 14.2538 15 13.3334 15C12.4129 15 11.6667 15.7462 11.6667 16.6667C11.6667 17.5871 12.4129 18.3333 13.3334 18.3333Z" fill="#1c2d5b"/>
<path d="M18.3333 10.4417V11.6667H15.8333C15.375 11.6667 15 11.2917 15 10.8333V8.33333C15 7.875 15.375 7.5 15.8333 7.5H16.9083L18.1167 9.61667C18.2583 9.86667 18.3333 10.15 18.3333 10.4417Z" fill="#1c2d5b"/>
<path d="M10.9 1.66669H4.74163C3.24996 1.66669 1.99996 2.73335 1.72496 4.15002H5.36663C5.68329 4.15002 5.93329 4.40835 5.93329 4.72502C5.93329 5.04169 5.68329 5.29169 5.36663 5.29169H1.66663V6.44169H3.83329C4.14996 6.44169 4.40829 6.70002 4.40829 7.01669C4.40829 7.33335 4.14996 7.58335 3.83329 7.58335H1.66663V8.73335H2.30829C2.62496 8.73335 2.88329 8.99169 2.88329 9.30835C2.88329 9.62502 2.62496 9.87502 2.30829 9.87502H1.66663V10.0667C1.66663 10.525 2.04163 10.9 2.49996 10.9H10.125C10.975 10.9 11.6666 10.2084 11.6666 9.35835V2.43335C11.6666 2.00835 11.325 1.66669 10.9 1.66669Z" fill="#1c2d5b"/>
<path d="M1.72498 4.15002H1.59998H0.783313C0.466646 4.15002 0.208313 4.40836 0.208313 4.72502C0.208313 5.04169 0.466646 5.29169 0.783313 5.29169H1.54165H1.66665V4.74169C1.66665 4.54169 1.69165 4.34169 1.72498 4.15002Z" fill="#1c2d5b"/>
<path d="M1.54165 6.44171H0.783313C0.466646 6.44171 0.208313 6.70004 0.208313 7.01671C0.208313 7.33338 0.466646 7.58338 0.783313 7.58338H1.54165H1.66665V6.44171H1.54165Z" fill="#1c2d5b"/>
<path d="M1.54165 8.73334H0.783313C0.466646 8.73334 0.208313 8.99167 0.208313 9.30834C0.208313 9.625 0.466646 9.875 0.783313 9.875H1.54165H1.66665V8.73334H1.54165Z" fill="#1c2d5b"/>
</svg>
