<svg width="26" height="26" viewBox="0 0 26 26" fill="none" xmlns="http://www.w3.org/2000/svg">
<g clip-path="url(#clip0_5_1669)">
<path d="M13 22.75C18.3848 22.75 22.75 18.3848 22.75 13C22.75 7.61522 18.3848 3.25 13 3.25C7.61522 3.25 3.25 7.61522 3.25 13C3.25 18.3848 7.61522 22.75 13 22.75Z" stroke="#999999" stroke-width="2" stroke-linecap="round" stroke-linejoin="round"/>
<path d="M9.75 10.8335H9.76083" stroke="#999999" stroke-width="2" stroke-linecap="round" stroke-linejoin="round"/>
<path d="M16.25 10.8335H16.2608" stroke="#999999" stroke-width="2" stroke-linecap="round" stroke-linejoin="round"/>
<path d="M10.2917 16.25C10.6447 16.6103 11.0661 16.8966 11.5311 17.092C11.9962 17.2874 12.4955 17.3881 13 17.3881C13.5044 17.3881 14.0038 17.2874 14.4689 17.092C14.9339 16.8966 15.3553 16.6103 15.7083 16.25" stroke="#999999" stroke-width="2" stroke-linecap="round" stroke-linejoin="round"/>
</g>
<defs>
<clipPath id="clip0_5_1669">
<rect width="26" height="26" fill="white"/>
</clipPath>
</defs>
</svg>
