<svg width="26" height="26" viewBox="0 0 26 26" fill="none" xmlns="http://www.w3.org/2000/svg">
<path d="M7.32334 23.8332H18.6767C21.6667 23.8332 22.8583 22.0023 22.9992 19.7707L23.5625 10.8223C23.7142 8.48234 21.8508 6.49984 19.5 6.49984C18.8392 6.49984 18.2325 6.12067 17.9292 5.53567L17.1492 3.96484C16.6508 2.979 15.3508 2.1665 14.2458 2.1665H11.765C10.6492 2.1665 9.34918 2.979 8.85084 3.96484L8.07084 5.53567C7.76751 6.12067 7.16084 6.49984 6.50001 6.49984C4.14918 6.49984 2.28584 8.48234 2.43751 10.8223L3.00084 19.7707C3.13084 22.0023 4.33334 23.8332 7.32334 23.8332Z" stroke="#999999" stroke-width="1.5" stroke-linecap="round" stroke-linejoin="round"/>
<path d="M11.375 8.6665H14.625" stroke="#999999" stroke-width="1.5" stroke-linecap="round" stroke-linejoin="round"/>
<path d="M13 19.5002C14.9392 19.5002 16.5208 17.9185 16.5208 15.9793C16.5208 14.0402 14.9392 12.4585 13 12.4585C11.0608 12.4585 9.47916 14.0402 9.47916 15.9793C9.47916 17.9185 11.0608 19.5002 13 19.5002Z" stroke="#999999" stroke-width="1.5" stroke-linecap="round" stroke-linejoin="round"/>
</svg>
