<svg width="40" height="40" viewBox="0 0 40 40" fill="none" xmlns="http://www.w3.org/2000/svg">
<rect width="40" height="40" rx="20" fill="#1C2D5B"/>
<path d="M15.7881 27.5717V15.7184C15.7881 15.2517 15.9281 14.7967 16.1848 14.4117L19.3698 9.67507C19.8714 8.91673 21.1198 8.38007 22.1814 8.77673C23.3248 9.16173 24.0831 10.4451 23.8381 11.5884L23.2314 15.4034C23.1848 15.7534 23.2781 16.0684 23.4764 16.3134C23.6748 16.5351 23.9664 16.6751 24.2814 16.6751H29.0764C29.9981 16.6751 30.7914 17.0484 31.2581 17.7017C31.7014 18.3317 31.7831 19.1484 31.4914 19.9767L28.6214 28.7151C28.2598 30.1617 26.6848 31.3401 25.1214 31.3401H20.5714C19.7898 31.3401 18.6931 31.0717 18.1914 30.5701L16.6981 29.4151C16.1264 28.9834 15.7881 28.2951 15.7881 27.5717Z" fill="white"/>
<path d="M12.0785 13.4432H10.8768C9.0685 13.4432 8.3335 14.1432 8.3335 15.8699V27.6065C8.3335 29.3332 9.0685 30.0332 10.8768 30.0332H12.0785C13.8868 30.0332 14.6218 29.3332 14.6218 27.6065V15.8699C14.6218 14.1432 13.8868 13.4432 12.0785 13.4432Z" fill="white"/>
</svg>
