<svg width="40" height="40" viewBox="0 0 40 40" fill="none" xmlns="http://www.w3.org/2000/svg">
<g clip-path="url(#clip0_7_7063)">
<path d="M14.4719 29.1356H10.0693C9.72261 29.1356 9.43994 28.8529 9.43994 28.5062V18.3969C9.43994 18.0502 9.72261 17.7676 10.0693 17.7676H14.4719C14.8186 17.7676 15.1013 18.0502 15.1013 18.3969V28.5062C15.1013 28.8529 14.8186 29.1356 14.4719 29.1356ZM16.6399 26.7596V19.5169C16.6399 17.7489 17.1439 15.9729 18.0826 14.4716C18.6559 13.5542 19.9413 12.0849 20.6613 11.3249C20.8213 11.1542 21.4026 10.6529 21.4026 10.3782C21.4026 10.0262 21.4426 9.45823 21.4559 8.39957C21.4639 7.72757 22.0106 7.17557 22.6826 7.1809H22.7119C23.8879 7.20757 24.2666 8.2929 24.2666 8.2929C24.2666 8.2929 25.2719 10.2769 24.3333 12.7036C23.5413 14.7542 23.3813 14.9196 23.3813 14.9196C23.3813 14.9196 23.1253 15.2902 23.9359 15.2742C23.9359 15.2742 28.8853 15.2529 29.0559 15.2529C29.4213 15.2529 30.5866 15.5862 30.5199 17.0716C30.4719 18.1702 29.7893 18.5542 29.4399 18.6796C29.3706 18.7036 29.3626 18.7996 29.4266 18.8369C29.7839 19.0449 30.5146 19.5702 30.4986 20.3756C30.4773 21.3516 30.0853 21.7116 29.2693 21.9356C29.1946 21.9569 29.1813 22.0556 29.2479 22.0929C29.5573 22.2689 30.0879 22.6982 30.0559 23.5676C30.0239 24.4529 29.3839 24.7649 29.0346 24.8716C28.9653 24.8929 28.9519 24.9836 29.0133 25.0262C29.2346 25.1782 29.5626 25.5222 29.5466 26.2289C29.5386 26.6022 29.4133 26.8742 29.2559 27.0689C29.0079 27.3756 28.6186 27.5356 28.2239 27.5382L17.2426 27.5596C17.2373 27.5596 16.6399 27.5596 16.6399 26.7596Z" fill="white"/>
<path d="M20 14.45C19.1067 9.03135 8.52002 8.61801 8.52002 16.746C8.52002 23.9487 20 30.5887 20 30.5887C20 30.5887 31.48 23.8607 31.48 16.746C31.48 8.61801 20.8934 9.03135 20 14.45Z" fill="white"/>
<path d="M20.0052 39.9973C31.0509 39.9973 40.0051 31.0573 40.0051 20.0293C40.0051 9.00127 31.0509 0.0612946 20.0052 0.0612946C8.95962 0.0612946 0.00537109 9.00127 0.00537109 20.0293C0.00537109 31.0573 8.95962 39.9973 20.0052 39.9973Z" fill="#FFDE4A"/>
<path d="M20.1412 20.909H6.81055C6.81055 20.909 7.16255 32.4211 19.8505 33.0638C20.0292 33.0718 20.1491 33.0665 20.1491 33.0665C32.8398 32.4238 33.1891 20.909 33.1891 20.909H20.1412Z" fill="#262C38"/>
<path d="M8.32275 26.445C8.32275 26.445 12.9841 24.2211 19.9227 24.2424C23.3627 24.2531 27.4613 24.5624 31.6346 26.4664C31.6346 26.4664 28.784 33.4183 19.9894 33.4183C11.2161 33.4183 8.32275 26.445 8.32275 26.445Z" fill="#F05266"/>
<path d="M32.0053 10.96L26.48 13.6373L31.944 16.1492M7.94141 10.96L13.4667 13.6373L8.00274 16.1492" stroke="#262C38" stroke-miterlimit="10" stroke-linecap="round" stroke-linejoin="round"/>
</g>
<defs>
<clipPath id="clip0_7_7063">
<rect width="40" height="40" fill="white"/>
</clipPath>
</defs>
</svg>
