<svg width="24" height="24" viewBox="0 0 24 24" fill="none" xmlns="http://www.w3.org/2000/svg">
<path d="M15.996 15.4052L21.3924 10.0976L21.4608 10.0196C21.562 9.88362 21.6109 9.71569 21.5983 9.54662C21.5857 9.37755 21.5126 9.21869 21.3924 9.09919L15.996 3.79399L15.9216 3.73039C15.4896 3.40639 14.8536 3.71839 14.8536 4.29319V6.84919L14.5836 6.86719C10.308 7.20559 7.80358 9.91159 7.20598 14.8196C7.12918 15.4496 7.85158 15.8444 8.31958 15.4268C10.0368 13.8932 11.8116 12.9404 13.6536 12.5588C13.9488 12.4976 14.2452 12.4508 14.544 12.4184L14.8536 12.3908V14.906L14.8596 15.0044C14.9316 15.548 15.5904 15.8036 15.996 15.4052ZM14.6712 8.06359L16.0536 7.97119V5.53159L20.1888 9.59719L16.0536 13.6652V11.0768L14.4264 11.2232H14.4168C12.3732 11.4428 10.4448 12.2612 8.62438 13.6256C8.98198 12.0188 9.59278 10.8104 10.3956 9.94519C11.3916 8.87119 12.7836 8.21359 14.6712 8.06239V8.06359ZM6.59998 4.79959C5.80433 4.79959 5.04126 5.11566 4.47866 5.67827C3.91605 6.24088 3.59998 7.00394 3.59998 7.79959V17.3996C3.59998 18.1952 3.91605 18.9583 4.47866 19.5209C5.04126 20.0835 5.80433 20.3996 6.59998 20.3996H16.2C16.9956 20.3996 17.7587 20.0835 18.3213 19.5209C18.8839 18.9583 19.2 18.1952 19.2 17.3996V16.1996C19.2 16.0405 19.1368 15.8878 19.0242 15.7753C18.9117 15.6628 18.7591 15.5996 18.6 15.5996C18.4408 15.5996 18.2882 15.6628 18.1757 15.7753C18.0632 15.8878 18 16.0405 18 16.1996V17.3996C18 17.877 17.8103 18.3348 17.4728 18.6724C17.1352 19.0099 16.6774 19.1996 16.2 19.1996H6.59998C6.12259 19.1996 5.66475 19.0099 5.32718 18.6724C4.98962 18.3348 4.79998 17.877 4.79998 17.3996V7.79959C4.79998 7.3222 4.98962 6.86436 5.32718 6.52679C5.66475 6.18923 6.12259 5.99959 6.59998 5.99959H10.2C10.3591 5.99959 10.5117 5.93637 10.6242 5.82385C10.7368 5.71133 10.8 5.55872 10.8 5.39959C10.8 5.24046 10.7368 5.08784 10.6242 4.97532C10.5117 4.8628 10.3591 4.79959 10.2 4.79959H6.59998Z" fill="black"/>
</svg>
